<svg xmlns="http://www.w3.org/2000/svg" xmlns:xlink="http://www.w3.org/1999/xlink" fill="none" version="1.1" width="2048" height="1152" viewBox="0 0 2048 1152"><defs><clipPath id="master_svg0_2_00"><rect x="0" y="0" width="2048" height="1152" rx="0"/></clipPath></defs><g clip-path="url(#master_svg0_2_00)"><rect x="0" y="0" width="2048" height="1152" rx="0" fill="#FFFFFF" fill-opacity="1"/><rect x="18" y="0" width="2012" height="1152" rx="0" fill="#D8D8D8" fill-opacity="1"/><rect x="18" y="0" width="503" height="186" rx="0" fill="#F5F5F5" fill-opacity="1"/><path d="M521,0L520,0L520,186L521,186L521,0Z" fill-rule="evenodd" fill="#636363" fill-opacity="1"/><rect x="18" y="0" width="503" height="186" rx="0" fill="#F5F5F5" fill-opacity="1"/><path d="M521,0L520,0L520,186L521,186L521,0Z" fill-rule="evenodd" fill="#636363" fill-opacity="1"/><g><path d="M243.29399899999999,88.532Q250.763996,93.014,255.079998,96.334Q259.39599599999997,99.65401,262.383995,104.46799999999999Q265.371994,109.28200000000001,265.371994,115.756Q265.371994,117.416,265.20599400000003,118.412Q264.375999,128.20599,259.229996,135.261Q254.083996,142.31599,246.032997,145.968Q237.981998,149.62,228.685997,149.62Q215.405998,149.62,206.608,142.814Q197.8099999,136.008,197.8099999,122.72800000000001Q197.8099999,120.07201,197.9759998,118.744Q198.9719996,109.44800000000001,206.856999,102.39301Q214.741999,95.338,226.362,91.188Q218.061998,86.374,213.414,80.564Q208.765999,74.754,208.765999,65.458Q208.765999,63.300003000000004,208.931999,62.138000000000005Q209.595999,55.332001000000005,213.497,49.107001999999994Q217.397999,42.882003999999995,223.954998,38.981003Q230.511997,35.080002,238.313999,35.080002Q246.115997,35.080002,252.25799899999998,38.317001000000005Q258.399994,41.554001,261.802994,47.19800600000001Q265.20599400000003,52.842003000000005,265.20599400000003,59.814003Q265.20599400000003,77.244,243.29399899999999,88.532ZM222.211998,61.971999999999994Q221.547998,69.608002,225.531998,74.83701Q229.515999,80.066,237.483997,85.04601Q251.925999,74.92,251.925999,59.316002Q251.925999,50.684006,247.858997,46.700005000000004Q243.792,42.716003,237.317997,42.716003Q230.843998,42.716003,226.942997,47.530006Q223.041998,52.344002,222.211998,61.971999999999994ZM250.431999,116.58600000000001Q250.431999,108.78399999999999,245.700996,104.136Q240.969997,99.48801,231.674,94.342Q222.211998,99.65401,217.480999,105.713Q212.75,111.77199999999999,212.75,122.064Q212.75,131.692,217.397999,136.838Q222.046,141.98399,228.52,141.98399Q233.997997,141.98399,239.143997,138.41499Q244.289997,134.84599,247.360996,128.953Q250.431999,123.06,250.431999,116.58600000000001ZM316.5,81.726Q327.45599000000004,81.726,333.92999,88.78101Q340.40399,95.836,340.40399,108.286Q340.40399,118.91,335.756,127.957Q331.108,137.004,323.14,142.31599Q315.172,147.62801,305.71,147.62801Q276.99199699999997,147.62801,276.99199699999997,115.09200000000001Q276.99199699999997,109.78,277.323997,106.95801Q278.818001,88.532,287.532997,72.347Q296.248,56.162003,310.192,45.953002999999995Q324.13599999999997,35.744003,340.73599,34.084007L340.07199,39.562004Q319.156,45.372001999999995,308.532,57.739006Q297.908,70.106003,293.924,92.35001Q298.738,87.204,304.631,84.465Q310.524,81.726,316.5,81.726ZM325.13199,112.10400000000001Q325.298,110.61000000000001,325.298,107.78799000000001Q325.298,99.32201,322.06100000000004,94.093Q318.824,88.864,313.51198999999997,88.864Q308.2,88.864,302.556,93.512Q296.91200000000003,98.16,292.098,105.298L291.931999,107.12398999999999Q291.433998,112.27000000000001,291.433998,116.58600000000001Q291.433998,139.992,305.212,139.992Q312.01800000000003,139.992,317.828,133.103Q323.63800000000003,126.214,325.13199,112.10400000000001Z" fill="#000000" fill-opacity="1"/></g><g><path d="M52.96875,171.046875Q50.90625,171.046875,49.453125,170.050781Q48,169.054688,48,167.671875Q48,166.59375,48.7265625,166.148438Q49.453125,165.703125,50.1796875,165.703125Q50.578125,165.703125,50.9648438,165.949219Q51.3515625,166.195312,51.3515625,166.78125Q51.3515625,167.226562,50.9648438,167.578125Q50.578125,167.929688,50.0390625,167.929688Q49.734375,167.929688,49.4414062,167.894531Q49.1484375,167.859375,48.9140625,167.695312L48.9140625,167.835938Q48.9140625,168.984375,50.0625,169.710938Q51.2109375,170.4375,53.15625,170.4375Q54.328125,170.4375,55.4648438,170.097656Q56.6015625,169.757812,58.007812,168.785156Q59.414062,167.8125,61.382812,165.949219Q63.351562,164.085938,66.164062,161.097656Q68.976562,158.109375,72.9375,153.703125Q77.414062,148.570312,81.398438,145.359375Q85.382812,142.148438,88.546875,140.460938Q87.257812,139.1484375,84.949219,138.4570312Q82.640625,137.765625,79.640625,137.765625Q78,137.765625,76.136719,138.1054688Q74.273438,138.4453125,72.632812,139.0546875Q69.820312,140.085938,67.113281,141.867188Q64.40625,143.648438,62.226562,145.757812Q60.046875,147.867188,58.757812,149.953125Q57.46875,152.039062,57.46875,153.703125Q57.46875,155.109375,58.40625,155.765625Q59.34375,156.421875,60.679688,156.421875Q62.671875,156.421875,65.097656,155.25Q67.523438,154.078125,69.796875,152.015625Q72.070312,149.953125,73.699219,147.246094Q75.328125,144.539062,75.75,141.46875Q75.84375,141,75.890625,140.859375Q75.9375,140.71875,76.078125,140.71875Q76.335938,140.71875,76.335938,141.234375Q76.335938,144.632812,74.90625,147.503906Q73.476562,150.375,71.132812,152.484375Q68.789062,154.59375,65.988281,155.765625Q63.1875,156.9375,60.445312,156.9375Q59.039062,156.9375,57.9023438,156.152344Q56.765625,155.367188,56.765625,153.632812Q56.765625,151.359375,58.042969,149.027344Q59.320312,146.695312,61.570312,144.585938Q63.820312,142.476562,66.773438,140.824219Q69.726562,139.171875,73.089844,138.2109375Q76.453125,137.25,79.921875,137.25Q86.25,137.25,89.671875,139.875Q91.523438,138.984375,93,138.5859375Q94.476562,138.1875,95.53125,138.1875Q96.304688,138.1875,96.304688,138.421875Q96.304688,138.5625,95.566406,138.6679688Q94.828125,138.7734375,93.46875,139.125Q92.109375,139.4765625,90.28125,140.414062Q92.484375,142.5,92.484375,145.617188Q92.484375,147.703125,91.195312,149.707031Q89.90625,151.710938,87.785156,153.351562Q85.664062,154.992188,83.203125,156Q85.078125,157.664062,85.078125,160.710938Q85.078125,162.703125,83.964844,164.554688Q82.851562,166.40625,80.964844,167.871094Q79.078125,169.335938,76.710938,170.191406Q74.34375,171.046875,71.8125,171.046875Q69.5625,171.046875,68.742188,170.179688Q67.921875,169.3125,67.921875,168.445312Q67.921875,167.226562,68.976562,165.773438Q70.03125,164.320312,71.789062,163.007812Q73.546875,161.695312,75.703125,160.851562Q77.859375,160.007812,80.0625,160.007812Q80.554688,160.007812,80.554688,160.289062Q80.554688,160.617188,79.828125,160.617188Q78,160.617188,76.042969,161.378906Q74.085938,162.140625,72.421875,163.335938Q70.757812,164.53125,69.726562,165.890625Q68.695312,167.25,68.695312,168.46875Q68.695312,169.171875,69.351562,169.78125Q70.007812,170.390625,71.90625,170.390625Q73.570312,170.390625,75.421875,169.429688Q77.273438,168.46875,78.890625,166.757812Q80.507812,165.046875,81.527344,162.785156Q82.546875,160.523438,82.546875,157.898438Q82.546875,156.960938,82.195312,156.398438Q81.046875,156.773438,79.875,156.996094Q78.703125,157.21875,77.578125,157.21875Q76.5,157.21875,75.9375,156.867188Q75.375,156.515625,75.375,156.140625Q75.375,155.578125,76.546875,155.109375Q77.71875,154.640625,79.21875,154.640625Q80.8125,154.640625,82.078125,155.273438Q84.046875,154.3125,85.875,152.671875Q87.703125,151.03125,88.875,148.816406Q90.046875,146.601562,90.046875,143.976562Q90.046875,142.335938,89.0625,141.070312Q88.546875,141.375,87.996094,141.75Q87.445312,142.125,86.859375,142.546875Q84.914062,144,83.015625,145.804688Q81.117188,147.609375,79.054688,150.023438Q76.992188,152.4375,74.554688,155.71875Q70.148438,161.625,66.011719,165.164062Q61.875,168.703125,58.125,170.25Q56.8359375,170.765625,55.5585938,170.90625Q54.28125,171.046875,52.96875,171.046875ZM77.601562,156.46875Q79.289062,156.46875,81.351562,155.601562Q80.601562,155.179688,79.242188,155.179688Q78.140625,155.179688,77.355469,155.425781Q76.570312,155.671875,76.570312,155.953125Q76.570312,156.117188,76.863281,156.292969Q77.15625,156.46875,77.601562,156.46875ZM91.242188,171.046875Q88.6875,171.046875,87.480469,170.109375Q86.273438,169.171875,86.273438,167.835938Q86.273438,166.804688,87.011719,166.347656Q87.75,165.890625,88.476562,165.890625Q88.828125,165.890625,89.238281,166.148438Q89.648438,166.40625,89.648438,166.96875Q89.648438,167.414062,89.25,167.777344Q88.851562,168.140625,88.3125,168.140625Q88.007812,168.140625,87.726562,168.09375Q87.445312,168.046875,87.210938,167.90625L87.210938,168.023438Q87.210938,169.054688,88.21875,169.722656Q89.226562,170.390625,90.9375,170.390625Q92.4375,170.390625,93.808594,169.875Q95.179688,169.359375,96.832031,167.90625Q98.484375,166.453125,100.746094,163.664062Q103.007812,160.875,106.3125,156.328125Q105,155.460938,105,154.265625Q105,153.210938,105.914062,152.53125Q106.828125,151.851562,107.835938,151.851562Q108.28125,151.851562,108.351562,151.96875Q108.421875,152.085938,108.421875,152.085938Q108.421875,152.226562,108.140625,152.273438Q107.0625,152.4375,106.5,153.117188Q105.9375,153.796875,105.9375,154.710938Q105.9375,155.25,106.710938,155.765625L107.039062,155.320312Q109.59375,151.875,111.878906,149.273438Q114.164062,146.671875,116.425781,144.621094Q118.6875,142.570312,121.195312,140.859375L122.15625,140.226562Q120.820312,139.40625,118.734375,138.984375Q116.648438,138.5625,113.789062,138.5625Q109.3125,138.5625,105.316406,139.828125Q101.320312,141.09375,98.273438,143.144531Q95.226562,145.195312,93.527344,147.621094Q91.828125,150.046875,91.898438,152.367188Q91.96875,154.289062,93.023438,155.039062Q94.078125,155.789062,95.085938,155.789062Q96.773438,155.789062,98.484375,154.757812Q100.195312,153.726562,101.753906,152.109375Q103.3125,150.492188,104.554688,148.6875Q105.796875,146.882812,106.558594,145.277344Q107.320312,143.671875,107.4375,142.710938Q107.507812,141.914062,107.765625,141.914062Q108,141.914062,108,142.640625Q108.070312,144.679688,107.203125,147.058594Q106.335938,149.4375,104.636719,151.570312Q102.9375,153.703125,100.5,155.0625Q98.0625,156.421875,95.015625,156.421875Q93.703125,156.421875,92.460938,155.34375Q91.21875,154.265625,91.171875,152.507812Q91.101562,150.210938,92.367188,148.078125Q93.632812,145.945312,95.882812,144.117188Q98.132812,142.289062,101.050781,140.929688Q103.96875,139.5703125,107.226562,138.8085938Q110.484375,138.046875,113.742188,138.046875Q116.671875,138.046875,118.96875,138.4921875Q121.265625,138.9375,122.953125,139.7578125Q124.40625,138.9375,125.519531,138.5625Q126.632812,138.1875,127.195312,138.1875Q127.640625,138.1875,127.664062,138.421875Q127.664062,138.5625,127.558594,138.65625Q127.453125,138.75,127.054688,138.796875Q125.507812,139.1015625,123.796875,140.203125Q125.695312,141.328125,126.632812,142.898438Q127.570312,144.46875,127.570312,146.296875Q127.570312,148.476562,126.304688,150.515625Q125.039062,152.554688,122.882812,154.171875Q120.726562,155.789062,118.019531,156.738281Q115.3125,157.6875,112.429688,157.6875Q110.578125,157.6875,109.007812,157.359375Q105.164062,162.515625,101.976562,165.503906Q98.789062,168.492188,96.128906,169.769531Q93.46875,171.046875,91.242188,171.046875ZM112.335938,157.078125Q114.210938,157.078125,116.367188,156.292969Q118.523438,155.507812,120.433594,153.960938Q122.34375,152.414062,123.550781,150.105469Q124.757812,147.796875,124.757812,144.773438Q124.757812,142.289062,122.953125,140.789062Q120.398438,142.640625,117.585938,145.96875Q114.773438,149.296875,111.632812,153.703125Q111.070312,154.523438,110.53125,155.285156Q109.992188,156.046875,109.453125,156.773438Q110.90625,157.078125,112.335938,157.078125ZM151.35938,171.046875Q149.92969,171.046875,149.22656,170.402344Q148.52344,169.757812,148.52344,168.820312Q148.52344,168.140625,149.13281,166.664062Q149.74219,165.1875,151.66406,162.28125Q153.91406,158.929688,156.72656,155.519531Q159.53906,152.109375,162.48047,148.898438Q165.42188,145.6875,168.15233999999998,142.898438Q170.88281,140.109375,172.99219,138.0234375Q171.9375,138.7734375,170.64844,139.8515625Q169.35938,140.929688,167.48438,142.628906Q165.60938,144.328125,162.86719,146.90625Q160.125,149.484375,156.1875,153.257812Q154.21875,155.132812,150.48047,159Q146.742188,162.867188,141.703125,168.75Q140.484375,170.179688,140.027344,170.507812Q139.570312,170.835938,139.3125,170.835938Q139.148438,170.835938,138.972656,170.601562Q138.796875,170.367188,138.796875,169.851562Q138.796875,167.882812,140.15625,164.683594Q141.515625,161.484375,144.011719,157.441406Q146.507812,153.398438,149.92969,148.875Q153.35156,144.351562,157.45312,139.7109375Q156.14062,140.90625,152.66016000000002,144.515625Q149.17969,148.125,143.015625,154.898438Q137.671875,160.757812,133.40625,164.355469Q129.140625,167.953125,125.859375,169.617188Q123.046875,171.023438,120.890625,171.023438Q118.6875,171.023438,117.585938,170.179688Q116.484375,169.335938,116.484375,168.023438Q116.484375,166.945312,117.210938,166.417969Q117.9375,165.890625,118.664062,165.890625Q119.039062,165.890625,119.449219,166.148438Q119.859375,166.40625,119.859375,166.96875Q119.859375,167.414062,119.460938,167.777344Q119.0625,168.140625,118.523438,168.140625Q118.21875,168.140625,117.925781,168.09375Q117.632812,168.046875,117.398438,167.882812Q117.398438,167.976562,117.386719,168.046875Q117.375,168.117188,117.375,168.164062Q117.375,169.171875,118.265625,169.78125Q119.15625,170.390625,120.867188,170.390625Q122.601562,170.390625,124.863281,169.359375Q127.125,168.328125,130.207031,165.925781Q133.289062,163.523438,137.460938,159.445312Q141.632812,155.367188,147.1875,149.296875Q151.85156,144.210938,154.83983999999998,141.363281Q157.82812,138.515625,159.33983999999998,137.3671875Q160.85156,136.21875,161.0625,136.21875Q161.22656,136.21875,161.46094,136.2773438Q161.69531,136.3359375,161.69531,136.453125Q161.69531,136.59375,161.34375,136.8984375Q161.10938,137.109375,160.76953,137.4140625Q160.42969,137.71875,159.9375,138.2109375Q159.32812,138.8671875,158.07422,140.636719Q156.82031,142.40625,155.16797,144.902344Q153.51562,147.398438,151.65233999999998,150.304688Q149.78906,153.210938,147.960938,156.164062Q146.132812,159.117188,144.527344,161.765625Q142.921875,164.414062,141.761719,166.441406Q140.601562,168.46875,140.109375,169.476562Q142.664062,166.523438,144.738281,164.179688Q146.8125,161.835938,148.72266000000002,159.785156Q150.63281,157.734375,152.63672,155.695312Q154.64062,153.65625,157.03125,151.347656Q159.42188,149.039062,162.46875,146.15625Q166.52344,142.382812,169.23047,140.191406Q171.9375,138,173.55469,137.0742188Q175.17188,136.1484375,175.89844,136.1484375Q176.13281,136.1484375,176.13281,136.3359375Q176.13281,136.5,175.52344,136.921875Q174.91406,137.34375,174.21094,137.953125Q171.89062,139.9921875,169.18358999999998,143.167969Q166.47656,146.34375,163.64062,150.117188Q160.80469,153.890625,158.03906,157.78125Q155.27344,161.671875,152.83594,165.140625Q151.73438,166.757812,151.20703,167.589844Q150.67969,168.421875,150.53906,168.785156Q150.39844,169.148438,150.39844,169.429688Q150.39844,170.414062,151.75781,170.414062Q152.4375,170.414062,153.59766000000002,170.074219Q154.75781,169.734375,156.02344,169.089844Q157.28906,168.445312,158.22656,167.53125Q158.34375,167.578125,158.34375,167.835938Q158.34375,168.1875,158.22656,168.375Q157.21875,169.21875,155.90625,169.816406Q154.59375,170.414062,153.375,170.730469Q152.15625,171.046875,151.35938,171.046875Z" fill="#9E9E9E" fill-opacity="1"/></g><rect x="521" y="0" width="503" height="186" rx="0" fill="#F5F5F5" fill-opacity="1"/><path d="M1024,0L1023,0L1023,186L1024,186L1024,0Z" fill-rule="evenodd" fill="#636363" fill-opacity="1"/><g><path d="M783.973999,37.072006Q784.969997,36.574005,786.132,36.574005Q787.792,36.574005,788.787998,37.736000000000004Q789.783997,38.898003,789.617996,40.724007L780.82,140.49001L789.119999,142.31599L788.787998,146.466L756.251999,146.466L756.584,142.31599L765.879999,140.49001L773.848,49.356003L762.726,51.846001L761.397999,47.862007000000006L783.973999,37.072006Z" fill="#000000" fill-opacity="1"/></g><g><path d="M581.375,174.585938Q579.78125,174.585938,577.7890620000001,174.234375Q575.796875,173.882812,573.816406,173.378906Q571.835938,172.875,570.265625,172.429688Q566.609375,174.046875,562.15625,174.046875Q559.5078125,174.046875,558.2539062,173.4375Q557,172.828125,557,172.125Q557,171.023438,558.453125,170.378906Q559.90625,169.734375,562.25,169.734375Q564.0078125,169.734375,565.8476562,170.15625Q567.6875,170.578125,569.914062,171.375Q571.71875,170.203125,573.6640620000001,168.082031Q575.609375,165.960938,578.0703120000001,162.609375Q573.21875,162.445312,570.265625,160.488281Q567.3125,158.53125,567.3125,155.484375Q567.3125,153.46875,568.613281,151.558594Q569.914062,149.648438,572.011719,148.40625Q574.109375,147.164062,576.5234379999999,147.164062Q576.921875,147.164062,576.980469,147.269531Q577.0390620000001,147.375,577.0390620000001,147.445312Q577.0390620000001,147.5625,576.9453120000001,147.621094Q576.8515620000001,147.679688,576.2890620000001,147.726562Q573.875,147.960938,572.269531,149.097656Q570.664062,150.234375,569.867188,151.804688Q569.070312,153.375,569.070312,154.921875Q569.070312,158.53125,571.648438,160.207031Q574.2265620000001,161.882812,578.5625,161.929688Q579.3125,160.898438,580.097656,159.75Q580.8828120000001,158.601562,581.75,157.3125Q585.6640620000001,151.476562,589.074219,147.925781Q592.484375,144.375,595.71875,142.7695312Q598.953125,141.1640625,602.3046879999999,141.1640625Q604.0390620000001,141.1640625,605.1171879999999,141.9375Q606.1953120000001,142.7109375,606.1953120000001,144Q606.1953120000001,145.96875,604.683594,148.265625Q603.171875,150.5625,600.605469,152.835938Q598.0390620000001,155.109375,594.828125,157.101562Q591.6171879999999,159.09375,588.1953120000001,160.488281Q584.7734379999999,161.882812,581.5859379999999,162.375Q579.03125,165.796875,576.5234379999999,168.152344Q574.015625,170.507812,571.34375,171.914062Q573.359375,172.640625,575.855469,173.039062Q578.3515620000001,173.4375,581.5390620000001,173.4375Q584.1640620000001,173.4375,585.7578120000001,172.933594Q587.3515620000001,172.429688,588.160156,171.84375Q588.96875,171.257812,589.203125,171.023438Q589.5546879999999,170.671875,589.671875,170.929688Q589.7421879999999,171.09375,589.613281,171.339844Q589.484375,171.585938,589.296875,171.773438Q587.3984379999999,173.484375,585.40625,174.035156Q583.4140620000001,174.585938,581.375,174.585938ZM582.1484379999999,161.625Q585.2421879999999,161.085938,588.4296879999999,159.703125Q591.6171879999999,158.320312,594.511719,156.398438Q597.40625,154.476562,599.691406,152.296875Q601.9765620000001,150.117188,603.300781,147.9375Q604.625,145.757812,604.625,143.859375Q604.625,143.039062,603.921875,142.3710938Q603.21875,141.703125,602.1640620000001,141.703125Q598.390625,141.703125,594.722656,144.738281Q591.0546879999999,147.773438,587.609375,153.375Q586.1796879999999,155.71875,584.8203120000001,157.78125Q583.4609379999999,159.84375,582.1484379999999,161.625ZM561.828125,173.484375Q563.84375,173.484375,565.53125,173.179688Q567.21875,172.875,568.859375,172.007812Q567.289062,171.5625,565.5664062,171.246094Q563.84375,170.929688,562.4375,170.929688Q557.65625,170.929688,557.65625,172.101562Q557.65625,172.476562,558.7695312,172.980469Q559.8828125,173.484375,561.828125,173.484375ZM600.5234379999999,174.046875Q597.8046879999999,174.046875,595.859375,172.300781Q593.9140620000001,170.554688,593.9140620000001,166.945312Q593.9140620000001,163.453125,595.5546879999999,159.808594Q597.1953120000001,156.164062,600.019531,152.835938Q602.84375,149.507812,606.441406,146.871094Q610.0390620000001,144.234375,614,142.6992188Q617.9609379999999,141.1640625,621.8515620000001,141.1640625Q625.1328120000001,141.1640625,626.667969,142.5585938Q628.203125,143.953125,628.203125,146.109375Q628.203125,146.976562,627.863281,148.183594Q627.5234379999999,149.390625,627.1484379999999,149.929688Q626.703125,150.492188,626.5390620000001,150.492188Q626.3515620000001,150.492188,626.3515620000001,150.257812Q626.3515620000001,150.164062,626.5859379999999,149.835938Q626.890625,149.460938,627.21875,148.324219Q627.546875,147.1875,627.546875,146.15625Q627.546875,144.234375,626.140625,143.027344Q624.734375,141.8203125,621.59375,141.8203125Q619.0625,141.8203125,616.167969,143.109375Q613.2734379999999,144.398438,610.355469,146.589844Q607.4375,148.78125,604.800781,151.546875Q602.1640620000001,154.3125,600.089844,157.3125Q598.015625,160.3125,596.8203120000001,163.183594Q595.625,166.054688,595.625,168.445312Q595.625,170.648438,596.9140620000001,172.054688Q598.203125,173.460938,600.8046879999999,173.460938Q603.3359379999999,173.460938,606.1953120000001,172.160156Q609.0546879999999,170.859375,611.808594,168.644531Q614.5625,166.429688,616.800781,163.675781Q619.0390620000001,160.921875,620.386719,157.980469Q621.734375,155.039062,621.734375,152.320312Q621.734375,150.304688,620.667969,149.34375Q619.6015620000001,148.382812,617.75,148.382812Q615.5234379999999,148.382812,613.121094,149.695312Q610.71875,151.007812,608.65625,153.292969Q606.59375,155.578125,605.3046879999999,158.519531Q604.015625,161.460938,604.015625,164.71875Q604.015625,165.632812,604.238281,166.828125Q604.4609379999999,168.023438,605.09375,168.960938Q605.140625,169.03125,605.199219,169.160156Q605.2578120000001,169.289062,605.09375,169.382812Q604.9296879999999,169.453125,604.5546879999999,168.960938Q604.109375,168.398438,603.7109379999999,167.121094Q603.3125,165.84375,603.3125,164.4375Q603.3125,161.085938,604.578125,158.074219Q605.84375,155.0625,607.964844,152.730469Q610.0859379999999,150.398438,612.6875,149.0625Q615.2890620000001,147.726562,617.984375,147.726562Q619.859375,147.726562,621.371094,148.96875Q622.8828120000001,150.210938,622.8828120000001,152.929688Q622.8828120000001,155.601562,621.605469,158.519531Q620.328125,161.4375,618.1015620000001,164.191406Q615.875,166.945312,613.015625,169.171875Q610.15625,171.398438,606.9453120000001,172.722656Q603.734375,174.046875,600.5234379999999,174.046875ZM626.8203120000001,174.046875Q624.1015620000001,174.046875,622.15625,172.300781Q620.2109379999999,170.554688,620.2109379999999,166.945312Q620.2109379999999,163.453125,621.8515620000001,159.808594Q623.4921879999999,156.164062,626.316406,152.835938Q629.140625,149.507812,632.738281,146.871094Q636.3359379999999,144.234375,640.296875,142.6992188Q644.2578120000001,141.1640625,648.1484379999999,141.1640625Q651.4296879999999,141.1640625,652.964844,142.5585938Q654.5,143.953125,654.5,146.109375Q654.5,146.976562,654.160156,148.183594Q653.8203120000001,149.390625,653.4453120000001,149.929688Q653,150.492188,652.8359379999999,150.492188Q652.6484379999999,150.492188,652.6484379999999,150.257812Q652.6484379999999,150.164062,652.8828120000001,149.835938Q653.1875,149.460938,653.515625,148.324219Q653.84375,147.1875,653.84375,146.15625Q653.84375,144.234375,652.4375,143.027344Q651.03125,141.8203125,647.890625,141.8203125Q645.359375,141.8203125,642.464844,143.109375Q639.5703120000001,144.398438,636.652344,146.589844Q633.734375,148.78125,631.097656,151.546875Q628.4609379999999,154.3125,626.386719,157.3125Q624.3125,160.3125,623.1171879999999,163.183594Q621.921875,166.054688,621.921875,168.445312Q621.921875,170.648438,623.2109379999999,172.054688Q624.5,173.460938,627.1015620000001,173.460938Q629.6328120000001,173.460938,632.4921879999999,172.160156Q635.3515620000001,170.859375,638.105469,168.644531Q640.859375,166.429688,643.097656,163.675781Q645.3359379999999,160.921875,646.683594,157.980469Q648.03125,155.039062,648.03125,152.320312Q648.03125,150.304688,646.964844,149.34375Q645.8984379999999,148.382812,644.046875,148.382812Q641.8203120000001,148.382812,639.417969,149.695312Q637.015625,151.007812,634.953125,153.292969Q632.890625,155.578125,631.6015620000001,158.519531Q630.3125,161.460938,630.3125,164.71875Q630.3125,165.632812,630.535156,166.828125Q630.7578120000001,168.023438,631.390625,168.960938Q631.4375,169.03125,631.496094,169.160156Q631.5546879999999,169.289062,631.390625,169.382812Q631.2265620000001,169.453125,630.8515620000001,168.960938Q630.40625,168.398438,630.0078120000001,167.121094Q629.609375,165.84375,629.609375,164.4375Q629.609375,161.085938,630.875,158.074219Q632.140625,155.0625,634.261719,152.730469Q636.3828120000001,150.398438,638.984375,149.0625Q641.5859379999999,147.726562,644.28125,147.726562Q646.15625,147.726562,647.667969,148.96875Q649.1796879999999,150.210938,649.1796879999999,152.929688Q649.1796879999999,155.601562,647.902344,158.519531Q646.625,161.4375,644.3984379999999,164.191406Q642.171875,166.945312,639.3125,169.171875Q636.453125,171.398438,633.2421879999999,172.722656Q630.03125,174.046875,626.8203120000001,174.046875ZM650.5859379999999,174.046875Q648.03125,174.046875,646.824219,173.109375Q645.6171879999999,172.171875,645.6171879999999,170.835938Q645.6171879999999,169.804688,646.355469,169.347656Q647.09375,168.890625,647.8203120000001,168.890625Q648.171875,168.890625,648.582031,169.148438Q648.9921879999999,169.40625,648.9921879999999,169.96875Q648.9921879999999,170.414062,648.59375,170.777344Q648.1953120000001,171.140625,647.65625,171.140625Q647.3515620000001,171.140625,647.0703120000001,171.09375Q646.7890620000001,171.046875,646.5546879999999,170.90625L646.5546879999999,171.023438Q646.5546879999999,172.054688,647.5625,172.722656Q648.5703120000001,173.390625,650.28125,173.390625Q651.78125,173.390625,653.152344,172.875Q654.5234379999999,172.359375,656.175781,170.90625Q657.82812,169.453125,660.08984,166.664062Q662.3515600000001,163.875,665.65625,159.328125Q664.34375,158.460938,664.34375,157.265625Q664.34375,156.210938,665.2578100000001,155.53125Q666.17188,154.851562,667.1796899999999,154.851562Q667.625,154.851562,667.6953100000001,154.96875Q667.76562,155.085938,667.76562,155.085938Q667.76562,155.226562,667.48438,155.273438Q666.40625,155.4375,665.84375,156.117188Q665.28125,156.796875,665.28125,157.710938Q665.28125,158.25,666.0546899999999,158.765625L666.3828100000001,158.320312Q668.9375,154.875,671.22266,152.273438Q673.5078100000001,149.671875,675.76953,147.621094Q678.03125,145.570312,680.5390600000001,143.859375L681.5,143.226562Q680.1640600000001,142.40625,678.07812,141.984375Q675.9921899999999,141.5625,673.1328100000001,141.5625Q668.65625,141.5625,664.66016,142.828125Q660.6640600000001,144.09375,657.6171899999999,146.144531Q654.5703120000001,148.195312,652.871094,150.621094Q651.171875,153.046875,651.2421879999999,155.367188Q651.3125,157.289062,652.3671879999999,158.039062Q653.421875,158.789062,654.4296879999999,158.789062Q656.1171879999999,158.789062,657.82812,157.757812Q659.5390600000001,156.726562,661.09766,155.109375Q662.65625,153.492188,663.8984399999999,151.6875Q665.14062,149.882812,665.90234,148.277344Q666.6640600000001,146.671875,666.78125,145.710938Q666.8515600000001,144.914062,667.10938,144.914062Q667.34375,144.914062,667.34375,145.640625Q667.4140600000001,147.679688,666.54688,150.058594Q665.6796899999999,152.4375,663.98047,154.570312Q662.28125,156.703125,659.84375,158.0625Q657.40625,159.421875,654.359375,159.421875Q653.046875,159.421875,651.8046879999999,158.34375Q650.5625,157.265625,650.515625,155.507812Q650.4453120000001,153.210938,651.7109379999999,151.078125Q652.9765620000001,148.945312,655.2265620000001,147.117188Q657.4765600000001,145.289062,660.39453,143.929688Q663.3125,142.5703125,666.5703100000001,141.8085938Q669.82812,141.046875,673.0859399999999,141.046875Q676.01562,141.046875,678.3125,141.4921875Q680.60938,141.9375,682.29688,142.7578125Q683.75,141.9375,684.86328,141.5625Q685.9765600000001,141.1875,686.5390600000001,141.1875Q686.98438,141.1875,687.0078100000001,141.421875Q687.0078100000001,141.5625,686.90234,141.65625Q686.79688,141.75,686.3984399999999,141.796875Q684.8515600000001,142.1015625,683.14062,143.203125Q685.0390600000001,144.328125,685.9765600000001,145.898438Q686.9140600000001,147.46875,686.9140600000001,149.296875Q686.9140600000001,151.476562,685.6484399999999,153.515625Q684.3828100000001,155.554688,682.2265600000001,157.171875Q680.0703100000001,158.789062,677.36328,159.738281Q674.65625,160.6875,671.7734399999999,160.6875Q669.92188,160.6875,668.3515600000001,160.359375Q664.5078100000001,165.515625,661.3203100000001,168.503906Q658.1328100000001,171.492188,655.472656,172.769531Q652.8125,174.046875,650.5859379999999,174.046875ZM671.6796899999999,160.078125Q673.5546899999999,160.078125,675.7109399999999,159.292969Q677.8671899999999,158.507812,679.77734,156.960938Q681.6875,155.414062,682.89453,153.105469Q684.1015600000001,150.796875,684.1015600000001,147.773438Q684.1015600000001,145.289062,682.29688,143.789062Q679.7421899999999,145.640625,676.9296899999999,148.96875Q674.1171899999999,152.296875,670.9765600000001,156.703125Q670.4140600000001,157.523438,669.875,158.285156Q669.3359399999999,159.046875,668.79688,159.773438Q670.25,160.078125,671.6796899999999,160.078125Z" fill="#9E9E9E" fill-opacity="1"/></g><rect x="1024" y="1" width="503" height="186" rx="0" fill="#F5F5F5" fill-opacity="1"/><path d="M1527,1L1526,1L1526,187L1527,187L1527,1Z" fill-rule="evenodd" fill="#636363" fill-opacity="1"/><g><path d="M1252.28,62.802002Q1254.105999,50.352005000000005,1262.073999,43.380005Q1270.041998,36.408005,1281.993999,36.408005Q1290.127998,36.408005,1296.103996,39.728004Q1302.079998,43.048004000000006,1305.068001,48.609001000000006Q1308.056,54.170006,1307.391998,60.64400500000001Q1306.395996,71.600006,1298.842999,78.323Q1291.289997,85.04601,1277.18,89.03Q1286.475998,88.532,1292.949997,92.101Q1299.423996,95.67,1302.411999,101.72900000000001Q1305.399994,107.78799000000001,1304.736,114.92599000000001Q1303.407997,129.7,1294.028999,138.24899Q1284.649998,146.798,1267.386,146.798Q1257.757999,146.798,1247.7979994,144.308Q1244.3119998,143.478,1244.8099999,140.49001L1246.9679995,130.364Q1253.11,135.34399,1257.425999,137.58501Q1261.741999,139.826,1267.053999,139.826Q1273.029999,139.826,1278.175999,136.506Q1283.321999,133.186,1286.475998,127.04400999999999Q1289.629997,120.90200999999999,1289.629997,112.436Q1289.629997,103.638,1283.903,98.741Q1278.175999,93.844,1264.231998,92.68201L1264.73,86.872Q1275.021999,84.216,1280.997997,80.896Q1286.973999,77.576,1289.795998,72.762Q1292.617996,67.948006,1293.281998,60.64400500000001Q1293.945999,54.00400500000001,1290.625999,49.024001999999996Q1287.306,44.044005999999996,1281.329998,43.878006Q1263.9,43.380005,1258.255999,62.802002L1252.28,62.802002Z" fill="#000000" fill-opacity="1"/></g><g><path d="M1088.96875,171.046875Q1086.4140625,171.046875,1085.2070312,170.109375Q1084,169.171875,1084,167.835938Q1084,166.804688,1084.73828125,166.347656Q1085.4765625,165.890625,1086.203125,165.890625Q1086.5546875,165.890625,1086.9648438,166.148438Q1087.375,166.40625,1087.375,166.96875Q1087.375,167.414062,1086.9765625,167.777344Q1086.578125,168.140625,1086.0390625,168.140625Q1085.734375,168.140625,1085.453125,168.09375Q1085.171875,168.046875,1084.9375,167.90625L1084.9375,168.023438Q1084.9375,169.054688,1085.9453125,169.722656Q1086.953125,170.390625,1088.6640625,170.390625Q1090.1640625,170.390625,1091.5351562,169.875Q1092.90625,169.359375,1094.558594,167.90625Q1096.210938,166.453125,1098.472656,163.664062Q1100.734375,160.875,1104.039062,156.328125Q1102.726562,155.460938,1102.726562,154.265625Q1102.726562,153.210938,1103.640625,152.53125Q1104.554688,151.851562,1105.5625,151.851562Q1106.007812,151.851562,1106.078125,151.96875Q1106.148438,152.085938,1106.148438,152.085938Q1106.148438,152.226562,1105.867188,152.273438Q1104.789062,152.4375,1104.226562,153.117188Q1103.664062,153.796875,1103.664062,154.710938Q1103.664062,155.25,1104.4375,155.765625L1104.765625,155.320312Q1107.320312,151.875,1109.605469,149.273438Q1111.890625,146.671875,1114.152344,144.621094Q1116.414062,142.570312,1118.921875,140.859375L1119.882812,140.226562Q1118.546875,139.40625,1116.460938,138.984375Q1114.375,138.5625,1111.515625,138.5625Q1107.039062,138.5625,1103.042969,139.828125Q1099.046875,141.09375,1096,143.144531Q1092.953125,145.195312,1091.2539062,147.621094Q1089.5546875,150.046875,1089.625,152.367188Q1089.6953125,154.289062,1090.75,155.039062Q1091.8046875,155.789062,1092.8125,155.789062Q1094.5,155.789062,1096.210938,154.757812Q1097.921875,153.726562,1099.480469,152.109375Q1101.039062,150.492188,1102.28125,148.6875Q1103.523438,146.882812,1104.285156,145.277344Q1105.046875,143.671875,1105.164062,142.710938Q1105.234375,141.914062,1105.492188,141.914062Q1105.726562,141.914062,1105.726562,142.640625Q1105.796875,144.679688,1104.929688,147.058594Q1104.0625,149.4375,1102.363281,151.570312Q1100.664062,153.703125,1098.226562,155.0625Q1095.789062,156.421875,1092.7421875,156.421875Q1091.4296875,156.421875,1090.1875,155.34375Q1088.9453125,154.265625,1088.8984375,152.507812Q1088.828125,150.210938,1090.09375,148.078125Q1091.359375,145.945312,1093.609375,144.117188Q1095.859375,142.289062,1098.777344,140.929688Q1101.695312,139.5703125,1104.953125,138.8085938Q1108.210938,138.046875,1111.46875,138.046875Q1114.398438,138.046875,1116.695312,138.4921875Q1118.992188,138.9375,1120.679688,139.7578125Q1122.132812,138.9375,1123.246094,138.5625Q1124.359375,138.1875,1124.921875,138.1875Q1125.367188,138.1875,1125.390625,138.421875Q1125.390625,138.5625,1125.285156,138.65625Q1125.179688,138.75,1124.78125,138.796875Q1123.234375,139.1015625,1121.523438,140.203125Q1123.421875,141.328125,1124.359375,142.898438Q1125.296875,144.46875,1125.296875,146.296875Q1125.296875,148.476562,1124.03125,150.515625Q1122.765625,152.554688,1120.609375,154.171875Q1118.453125,155.789062,1115.746094,156.738281Q1113.039062,157.6875,1110.15625,157.6875Q1108.304688,157.6875,1106.734375,157.359375Q1102.890625,162.515625,1099.703125,165.503906Q1096.515625,168.492188,1093.8554688,169.769531Q1091.1953125,171.046875,1088.96875,171.046875ZM1110.0625,157.078125Q1111.9375,157.078125,1114.09375,156.292969Q1116.25,155.507812,1118.160156,153.960938Q1120.070312,152.414062,1121.277344,150.105469Q1122.484375,147.796875,1122.484375,144.773438Q1122.484375,142.289062,1120.679688,140.789062Q1118.125,142.640625,1115.3125,145.96875Q1112.5,149.296875,1109.359375,153.703125Q1108.796875,154.523438,1108.257812,155.285156Q1107.71875,156.046875,1107.179688,156.773438Q1108.632812,157.078125,1110.0625,157.078125ZM1116.625,171.046875Q1115.125,171.046875,1114.433594,170.226562Q1113.742188,169.40625,1113.742188,167.976562Q1113.742188,166.40625,1114.410156,164.625Q1115.078125,162.84375,1116.625,161.085938Q1119.789062,157.40625,1122.542969,156.175781Q1125.296875,154.945312,1127.710938,154.945312Q1128.929688,154.945312,1129.773438,155.460938Q1130.617188,155.976562,1130.617188,156.867188Q1130.617188,157.546875,1130.335938,158.25Q1131.085938,157.359375,1131.613281,156.691406Q1132.140625,156.023438,1132.632812,155.414062Q1133.242188,155.601562,1134.039062,155.601562Q1134.367188,155.601562,1134.929688,155.578125Q1135.492188,155.554688,1135.796875,155.507812L1127.898438,165.023438Q1126.398438,166.804688,1125.742188,167.917969Q1125.085938,169.03125,1125.085938,169.640625Q1125.085938,170.390625,1125.8125,170.390625Q1127.078125,170.390625,1128.4375,169.652344Q1129.796875,168.914062,1131.109375,167.753906Q1132.421875,166.59375,1133.570312,165.339844Q1134.71875,164.085938,1135.597656,163.019531Q1136.476562,161.953125,1136.945312,161.4375L1137.414062,161.835938Q1136.898438,162.421875,1135.960938,163.523438Q1135.023438,164.625,1133.816406,165.914062Q1132.609375,167.203125,1131.214844,168.375Q1129.820312,169.546875,1128.355469,170.296875Q1126.890625,171.046875,1125.460938,171.046875Q1123.117188,171.046875,1123.117188,169.59375Q1123.117188,169.054688,1123.316406,168.503906Q1123.515625,167.953125,1124.125,167.074219Q1124.734375,166.195312,1125.953125,164.71875L1125.71875,164.625Q1122.859375,168.140625,1120.433594,169.59375Q1118.007812,171.046875,1116.625,171.046875ZM1116.71875,170.34375Q1118.21875,170.34375,1120.679688,168.597656Q1123.140625,166.851562,1126.585938,162.773438Q1127.148438,162.09375,1127.628906,161.507812Q1128.109375,160.921875,1128.554688,160.40625Q1129.09375,159.585938,1129.527344,158.695312Q1129.960938,157.804688,1129.960938,157.078125Q1129.960938,156.351562,1129.445312,156.011719Q1128.929688,155.671875,1128.320312,155.671875Q1127.171875,155.671875,1124.605469,157.324219Q1122.039062,158.976562,1118.96875,162.609375Q1117.210938,164.71875,1116.4375,166.359375Q1115.664062,168,1115.664062,169.125Q1115.664062,170.34375,1116.71875,170.34375ZM1140.648438,171.046875Q1139.335938,171.046875,1138.515625,170.378906Q1137.695312,169.710938,1137.695312,168.632812Q1137.695312,166.757812,1140.4375,164.109375Q1143.179688,161.460938,1147.867188,158.320312Q1145.476562,157.921875,1143.753906,157.523438Q1142.03125,157.125,1141,156.65625Q1140.53125,157.59375,1139.640625,158.953125Q1138.75,160.3125,1137.367188,161.882812Q1136.429688,162.984375,1135.960938,163.429688Q1135.492188,163.875,1135.316406,163.957031Q1135.140625,164.039062,1135.117188,164.085938Q1135.046875,164.109375,1135.035156,163.945312Q1135.023438,163.78125,1135.046875,163.6875Q1135.046875,163.59375,1135.398438,163.242188Q1135.75,162.890625,1136.875,161.484375Q1138.046875,160.007812,1138.960938,158.671875Q1139.875,157.335938,1140.367188,156.328125Q1139.523438,155.789062,1139.382812,155.132812Q1139.195312,154.007812,1139.828125,153.09375Q1140.460938,152.179688,1141.46875,152.179688Q1142.710938,152.179688,1142.710938,153.257812Q1142.710938,153.796875,1142.5,154.171875Q1142.289062,154.546875,1142.078125,154.898438Q1141.65625,155.390625,1141.65625,156.140625Q1141.65625,156.375,1142.464844,156.644531Q1143.273438,156.914062,1144.457031,157.160156Q1145.640625,157.40625,1146.789062,157.582031Q1147.9375,157.757812,1148.59375,157.804688Q1149.039062,157.828125,1149.144531,157.957031Q1149.25,158.085938,1149.25,158.15625Q1149.25,158.390625,1148.570312,158.929688Q1147.28125,159.914062,1145.921875,161.308594Q1144.5625,162.703125,1143.390625,164.191406Q1142.21875,165.679688,1141.492188,166.992188Q1140.765625,168.304688,1140.765625,169.148438Q1140.765625,170.25,1141.65625,170.25Q1142.804688,170.25,1144.164062,169.476562Q1145.523438,168.703125,1146.917969,167.53125Q1148.3125,166.359375,1149.542969,165.105469Q1150.773438,163.851562,1151.664062,162.855469Q1152.554688,161.859375,1152.90625,161.484375L1153.375,161.882812Q1152.859375,162.375,1151.910156,163.441406Q1150.960938,164.507812,1149.695312,165.808594Q1148.429688,167.109375,1146.941406,168.304688Q1145.453125,169.5,1143.859375,170.273438Q1142.265625,171.046875,1140.648438,171.046875ZM1152.671875,171.046875Q1151.171875,171.046875,1150.480469,170.226562Q1149.789062,169.40625,1149.789062,167.976562Q1149.789062,166.40625,1150.457031,164.625Q1151.125,162.84375,1152.671875,161.085938Q1155.835938,157.40625,1158.589844,156.175781Q1161.34375,154.945312,1163.757812,154.945312Q1164.976562,154.945312,1165.820312,155.460938Q1166.664062,155.976562,1166.664062,156.867188Q1166.664062,157.546875,1166.382812,158.25Q1167.132812,157.359375,1167.660156,156.691406Q1168.1875,156.023438,1168.679688,155.414062Q1169.289062,155.601562,1170.085938,155.601562Q1170.414062,155.601562,1170.976562,155.578125Q1171.539062,155.554688,1171.84375,155.507812L1163.945312,165.023438Q1162.445312,166.804688,1161.789062,167.917969Q1161.132812,169.03125,1161.132812,169.640625Q1161.132812,170.390625,1161.859375,170.390625Q1163.125,170.390625,1164.484375,169.652344Q1165.84375,168.914062,1167.15625,167.753906Q1168.46875,166.59375,1169.617188,165.339844Q1170.765625,164.085938,1171.644531,163.019531Q1172.523438,161.953125,1172.992188,161.4375L1173.460938,161.835938Q1172.945312,162.421875,1172.007812,163.523438Q1171.070312,164.625,1169.863281,165.914062Q1168.65625,167.203125,1167.261719,168.375Q1165.867188,169.546875,1164.402344,170.296875Q1162.9375,171.046875,1161.507812,171.046875Q1159.164062,171.046875,1159.164062,169.59375Q1159.164062,169.054688,1159.363281,168.503906Q1159.5625,167.953125,1160.171875,167.074219Q1160.78125,166.195312,1162,164.71875L1161.765625,164.625Q1158.90625,168.140625,1156.480469,169.59375Q1154.054688,171.046875,1152.671875,171.046875ZM1152.765625,170.34375Q1154.265625,170.34375,1156.726562,168.597656Q1159.1875,166.851562,1162.632812,162.773438Q1163.195312,162.09375,1163.675781,161.507812Q1164.15625,160.921875,1164.601562,160.40625Q1165.140625,159.585938,1165.574219,158.695312Q1166.007812,157.804688,1166.007812,157.078125Q1166.007812,156.351562,1165.492188,156.011719Q1164.976562,155.671875,1164.367188,155.671875Q1163.21875,155.671875,1160.652344,157.324219Q1158.085938,158.976562,1155.015625,162.609375Q1153.257812,164.71875,1152.484375,166.359375Q1151.710938,168,1151.710938,169.125Q1151.710938,170.34375,1152.765625,170.34375ZM1175.03125,171.046875Q1174.304688,171.046875,1173.835938,170.566406Q1173.367188,170.085938,1173.367188,169.3125Q1173.367188,168.351562,1174.1875,167.542969Q1175.007812,166.734375,1176.15625,166.734375Q1176.953125,166.734375,1177.398438,167.214844Q1177.84375,167.695312,1177.84375,168.46875Q1177.84375,169.476562,1176.953125,170.261719Q1176.0625,171.046875,1175.03125,171.046875Z" fill="#9E9E9E" fill-opacity="1"/></g><rect x="1527" y="0" width="503" height="186" rx="0" fill="#F5F5F5" fill-opacity="1"/><g><path d="M1659.77832,123.48633000000001Q1651.1865234,123.48633000000001,1647.0932617,119.23096000000001Q1643,114.97559000000001,1643,108.89648Q1643,103.62793,1645.472168,97.75146Q1647.9443359,91.875,1653.050781,85.7959Q1661.885742,75.420898,1671.733887,71.327637Q1681.582031,67.234375,1688.714844,67.477539Q1694.145508,67.639648,1696.293457,70.030762Q1698.441406,72.421875,1698.522461,75.015625Q1698.68457,78.500977,1695.888184,81.21631Q1693.091797,83.93164,1689.930664,83.93164Q1688.066406,83.93164,1686.404785,82.71582Q1684.743164,81.5,1684.662109,79.149414Q1684.581055,76.879883,1686.404785,75.339844Q1688.228516,73.799805,1690.741211,73.71875Q1692.686523,73.637695,1694.875,74.610352L1694.875,74.286133Q1694.875,72.178711,1693.456543,70.881836Q1692.038086,69.584961,1688.714844,69.584961Q1683.28418,69.584961,1675.705566,75.583008Q1668.126953,81.58105,1658.5625,94.06348Q1654.104492,99.98047,1652.4833984,104.479Q1650.8623047,108.97754,1650.8623047,112.54395Q1650.8623047,116.0293,1653.496582,118.58251999999999Q1656.130859,121.13574,1660.264648,121.13574Q1668.126953,121.13574,1675.097656,118.13672Q1682.068359,115.1377,1687.823242,110.67969Q1693.578125,106.22168,1697.833496,101.64209Q1702.088867,97.0625,1704.561035,93.77979Q1707.033203,90.49707,1707.438477,90.0918L1709.22168,91.46973Q1708.816406,91.95605,1706.222656,95.31982Q1703.628906,98.68359,1699.170898,103.38477Q1694.712891,108.08594,1688.714844,112.70605Q1682.716797,117.32616999999999,1675.381348,120.40625Q1668.045898,123.48633000000001,1659.77832,123.48633000000001ZM1720.488281,123.16211000000001Q1715.949219,123.16211000000001,1713.112305,120.85204999999999Q1710.275391,118.54199,1710.275391,114.81348Q1710.275391,108.32910000000001,1719.758789,99.16992Q1729.242188,90.01074,1745.45312,79.149414Q1737.185547,77.771484,1731.228027,76.393555Q1725.270508,75.015625,1721.704102,73.394531Q1720.083008,76.636719,1717.00293,81.33789Q1713.922852,86.03906,1709.140625,91.46973Q1705.898438,95.2793,1704.277344,96.81934Q1702.65625,98.35938,1702.04834,98.64307Q1701.44043,98.92676,1701.359375,99.08887Q1701.116211,99.16992,1701.075684,98.60254Q1701.035156,98.03516,1701.116211,97.71094Q1701.116211,97.38672,1702.332031,96.1709Q1703.547852,94.95508,1707.438477,90.0918Q1711.491211,84.98535,1714.652344,80.36523Q1717.813477,75.745117,1719.515625,72.259766Q1716.597656,70.395508,1716.111328,68.125977Q1715.462891,64.235352,1717.651367,61.074219Q1719.839844,57.91308600000001,1723.325195,57.91308600000001Q1727.621094,57.91308600000001,1727.621094,61.641602000000006Q1727.621094,63.505859,1726.891602,64.802734Q1726.162109,66.099609,1725.432617,67.31543Q1723.973633,69.017578,1723.973633,71.611328Q1723.973633,72.421875,1726.77002,73.354004Q1729.566406,74.286133,1733.659668,75.137207Q1737.75293,75.988281,1741.724609,76.596191Q1745.69629,77.204102,1747.96582,77.366211Q1749.50586,77.447266,1749.87061,77.893066Q1750.23535,78.338867,1750.23535,78.582031Q1750.23535,79.392578,1747.8847700000001,81.25684Q1743.42676,84.66113,1738.725586,89.48389Q1734.024414,94.30664,1729.97168,99.45361Q1725.918945,104.60059,1723.40625,109.13964999999999Q1720.893555,113.67871,1720.893555,116.59667999999999Q1720.893555,120.40625,1723.973633,120.40625Q1727.945312,120.40625,1732.646484,117.73145Q1737.347656,115.05663999999999,1742.17041,111.00390999999999Q1746.99316,106.95117,1751.24854,102.61475Q1755.50391,98.27832,1758.5839799999999,94.8335Q1761.66406,91.38867,1762.87988,90.0918L1764.50098,91.46973Q1762.71777,93.17188,1759.43506,96.85986Q1756.15234,100.54785,1751.77539,105.04639Q1747.39844,109.54491999999999,1742.251465,113.67871Q1737.104492,117.8125,1731.592773,120.4873Q1726.081055,123.16211000000001,1720.488281,123.16211000000001ZM1768.71582,123.48633000000001Q1760.77246,123.48633000000001,1757.36816,119.35254Q1753.96387,115.21875,1753.80176,109.2207Q1753.7207,104.84375,1755.58496,99.49414Q1757.44922,94.14453,1759.47559,91.30762Q1765.47363,82.95898,1772.44434,77.69043Q1779.41504,72.421875,1786.10205,69.949707Q1792.78906,67.477539,1797.89551,67.477539Q1802.83984,67.477539,1804.82568,69.098633Q1806.81152,70.719727,1806.89258,72.827148Q1807.13574,75.988281,1803.52881,80.1626Q1799.9218799999999,84.33691,1790.9248,89.2002Q1781.9277299999999,94.06348,1765.79785,99.41309Q1762.96094,103.95215,1761.98828,107.23486Q1761.01562,110.51758000000001,1761.01562,113.11133000000001Q1761.01562,116.92089999999999,1763.56885,119.02832000000001Q1766.12207,121.13574,1769.60742,121.13574Q1777.22656,121.13574,1783.91357,118.25829999999999Q1790.60059,115.38086000000001,1796.15283,111.00390999999999Q1801.70508,106.62695,1805.91992,102.12842Q1810.1347700000001,97.62988,1812.80957,94.26611Q1815.4843799999999,90.90234,1816.37598,90.0918L1818.0781200000001,91.46973Q1816.8623,92.52344,1813.98486,96.08984Q1811.10742,99.65625,1806.68994,104.27637Q1802.27246,108.89648,1796.51758,113.27344Q1790.7627,117.65038999999999,1783.75146,120.56836000000001Q1776.7402299999999,123.48633000000001,1768.71582,123.48633000000001ZM1767.66211,96.57617Q1783.38672,91.06445,1792.46484,85.18799Q1801.54297,79.311523,1801.54297,73.961914Q1801.54297,69.422852,1797.3281200000001,69.422852Q1791.89746,69.422852,1785.5752,75.258789Q1779.25293,81.09473,1770.82324,92.19922Q1769.04004,94.46875,1767.66211,96.57617ZM1811.83691,124.86426Q1809.32422,124.86426,1805.35254,124.21582000000001Q1801.38086,123.56738000000001,1798.26025,121.45996Q1795.13965,119.35254,1795.13965,114.89453Q1795.13965,110.8418,1797.61182,108.20751999999999Q1800.0839799999999,105.57324,1803.08301,104.27637Q1806.08203,102.97949,1807.5410200000001,102.97949Q1810.86426,102.97949,1810.86426,106.05957Q1810.7832,107.35645,1809.04053,108.45068Q1807.29785,109.54491999999999,1805.19043,109.54491999999999Q1804.21777,109.54491999999999,1803.28564,108.85596000000001Q1802.3535200000001,108.16699,1801.78613,107.84277Q1800.89453,108.73437999999999,1799.0708,110.47704999999999Q1797.24707,112.21973,1797.24707,114.97559000000001Q1797.24707,118.05565999999999,1799.71924,119.55518000000001Q1802.19141,121.05469,1805.2714799999999,121.50049000000001Q1808.35156,121.94629,1809.97266,121.94629Q1813.37695,121.94629,1818.4834,119.23096000000001Q1823.58984,116.51562000000001,1828.00732,110.1123Q1832.4248,103.70898,1833.72168,92.68555Q1834.12695,88.79492,1834.4917,81.90527Q1834.85645,75.015625,1837.04492,68.693359Q1837.12598,68.450195,1837.12598,67.963867Q1834.0459,71.773438,1830.47949,76.150391Q1826.91309,80.52734,1823.63037,84.58008Q1820.34766,88.63281,1817.99707,91.46973Q1816.37598,93.41504,1815.6464799999999,93.98242Q1814.91699,94.5498,1814.99805,94.5498Q1814.91699,94.5498,1814.39014,94.59033Q1813.86328,94.63086,1813.53906,94.06348Q1813.37695,93.6582,1814.30908,92.52344Q1815.24121,91.38867,1816.29492,90.0918Q1818.15918,87.98438,1822.0498,83.36426Q1825.94043,78.744141,1830.27686,73.475586Q1834.61328,68.207031,1837.77441,64.154297Q1838.26074,61.722656,1839.2334,59.777344Q1840.20605,57.832031,1841.98926,57.832031Q1845.23145,57.832031,1845.23145,60.50683600000001Q1845.15039,62.046875,1841.50293,66.261719Q1839.31445,68.855469,1839.15234,69.625488Q1838.9902299999999,70.395508,1838.9902299999999,71.611328Q1838.90918,74.529297,1839.59814,78.865723Q1840.28711,83.20215,1841.09766,87.94385Q1841.9082,92.68555,1842.15137,96.98145Q1842.39453,103.38477,1840.69238,108.08594Q1841.98926,108.24805,1842.88086,108.24805Q1845.47461,108.24805,1848.83838,105.89746Q1852.20215,103.54688,1855.52539,100.30469Q1858.84863,97.0625,1861.3208,94.14453Q1863.79297,91.22656,1864.6035200000001,90.0918L1866.38672,91.46973Q1865.00879,92.92871,1862.3339799999999,95.96826Q1859.65918,99.00781,1856.25488,102.29053Q1852.85059,105.57324,1849.32471,107.8833Q1845.79883,110.19336000000001,1842.6377,110.19336000000001Q1841.9082,110.19336000000001,1841.2597700000001,110.15283Q1840.61133,110.1123,1839.96289,110.03125Q1836.15332,118.46094,1828.69629,121.6626Q1821.23926,124.86426,1811.83691,124.86426ZM1872.3847700000001,123.48633000000001Q1863.79297,123.48633000000001,1859.69971,119.23096000000001Q1855.60645,114.97559000000001,1855.60645,108.89648Q1855.60645,103.62793,1858.07861,97.75146Q1860.55078,91.875,1865.65723,85.7959Q1874.49219,75.420898,1884.34033,71.327637Q1894.18848,67.234375,1901.3212899999999,67.477539Q1906.75195,67.639648,1908.8999,70.030762Q1911.04785,72.421875,1911.12891,75.015625Q1911.2910200000001,78.500977,1908.49463,81.21631Q1905.69824,83.93164,1902.53711,83.93164Q1900.67285,83.93164,1899.01123,82.71582Q1897.34961,81.5,1897.26855,79.149414Q1897.1875,76.879883,1899.01123,75.339844Q1900.8349600000001,73.799805,1903.34766,73.71875Q1905.29297,73.637695,1907.48145,74.610352L1907.48145,74.286133Q1907.48145,72.178711,1906.06299,70.881836Q1904.64453,69.584961,1901.3212899999999,69.584961Q1895.8906200000001,69.584961,1888.31201,75.583008Q1880.7334,81.58105,1871.16895,94.06348Q1866.71094,99.98047,1865.08984,104.479Q1863.46875,108.97754,1863.46875,112.54395Q1863.46875,116.0293,1866.10303,118.58251999999999Q1868.7373,121.13574,1872.87109,121.13574Q1880.7334,121.13574,1887.7041,118.13672Q1894.6748,115.1377,1900.42969,110.67969Q1906.18457,106.22168,1910.43994,101.64209Q1914.69531,97.0625,1917.16748,93.77979Q1919.63965,90.49707,1920.04492,90.0918L1921.8281200000001,91.46973Q1921.42285,91.95605,1918.8291,95.31982Q1916.23535,98.68359,1911.77734,103.38477Q1907.31934,108.08594,1901.3212899999999,112.70605Q1895.32324,117.32616999999999,1887.98779,120.40625Q1880.65234,123.48633000000001,1872.3847700000001,123.48633000000001Z" fill="#000000" fill-opacity="1"/></g><g><path d="M1573.21875,164.140625Q1570.9453125,164.140625,1569.97265625,163.601562Q1569,163.0625,1569,162.40625Q1569,161.726562,1570.2421875,161.058594Q1571.484375,160.390625,1573.828125,160.390625Q1575.046875,160.390625,1576.4648438,160.671875Q1577.8828125,160.953125,1580.320312,161.679688Q1580.390625,161.703125,1580.460938,161.714844Q1580.53125,161.726562,1580.625,161.773438Q1583.0625,160.4375,1586.097656,157.484375Q1589.132812,154.53125,1593.585938,149.140625Q1595.601562,146.703125,1597.523438,144.40625Q1599.445312,142.109375,1602.046875,139.695312Q1603.570312,138.242188,1605.492188,136.953125Q1603.851562,134.421875,1600.992188,133.273438Q1598.132812,132.125,1594.5,132.125Q1591.710938,132.125,1589.085938,133.050781Q1586.460938,133.976562,1584.199219,135.511719Q1581.9375,137.046875,1580.226562,138.921875Q1578.515625,140.796875,1577.5664062,142.707031Q1576.6171875,144.617188,1576.6171875,146.257812Q1576.6171875,147.945312,1577.7773438,148.976562Q1578.9375,150.007812,1581.070312,150.007812Q1582.523438,150.007812,1584.421875,149.222656Q1586.320312,148.4375,1588.3125,147.078125Q1590.304688,145.71875,1592.027344,143.984375Q1593.75,142.25,1594.863281,140.328125Q1595.976562,138.40625,1596.09375,136.507812Q1596.164062,135.96875,1596.351562,135.96875Q1596.632812,135.96875,1596.632812,136.460938Q1596.632812,138.992188,1595.34375,141.511719Q1594.054688,144.03125,1591.839844,146.09375Q1589.625,148.15625,1586.824219,149.410156Q1584.023438,150.664062,1581,150.664062Q1579.570312,150.664062,1578.2460938,150.042969Q1576.921875,149.421875,1576.0898438,148.308594Q1575.2578125,147.195312,1575.2578125,145.71875Q1575.2578125,143.09375,1576.734375,140.574219Q1578.2109375,138.054688,1580.835938,136.015625Q1583.460938,133.976562,1586.929688,132.7695312Q1590.398438,131.5625,1594.359375,131.5625Q1598.414062,131.5625,1601.460938,132.828125Q1604.507812,134.09375,1606.359375,136.390625Q1608.65625,134.9375,1611.199219,133.929688Q1613.742188,132.921875,1615.945312,132.828125Q1616.296875,132.828125,1616.296875,133.0625Q1616.296875,133.203125,1616.179688,133.261719Q1616.0625,133.320312,1615.523438,133.414062Q1613.414062,133.671875,1611.292969,134.75Q1609.171875,135.828125,1607.15625,137.5625Q1608.890625,140.445312,1608.890625,144.3125Q1608.890625,148.625,1607.238281,152.234375Q1605.585938,155.84375,1602.738281,158.492188Q1599.890625,161.140625,1596.292969,162.59375Q1592.695312,164.046875,1588.804688,164.046875Q1587.046875,164.046875,1585.429688,163.765625Q1583.8125,163.484375,1581.609375,162.851562Q1577.8125,164.140625,1573.21875,164.140625ZM1588.921875,163.34375Q1592.367188,163.34375,1595.660156,161.9375Q1598.953125,160.53125,1601.601562,157.988281Q1604.25,155.445312,1605.820312,151.976562Q1607.390625,148.507812,1607.390625,144.40625Q1607.390625,140.867188,1606.242188,138.359375Q1603.570312,140.867188,1601.085938,144.453125Q1598.390625,148.34375,1595.671875,151.871094Q1592.953125,155.398438,1589.8125,158.128906Q1586.671875,160.859375,1582.710938,162.429688Q1583.929688,162.804688,1585.394531,163.074219Q1586.859375,163.34375,1588.921875,163.34375ZM1573.6171875,163.390625Q1575.2109375,163.390625,1576.6523438,163.167969Q1578.09375,162.945312,1579.570312,162.289062Q1578.0234375,161.890625,1576.6054688,161.644531Q1575.1875,161.398438,1573.6640625,161.398438Q1571.671875,161.398438,1570.6640625,161.703125Q1569.65625,162.007812,1569.65625,162.40625Q1569.65625,163.390625,1573.6171875,163.390625ZM1595.835938,182.445312Q1594.828125,182.445312,1594.3125,181.929688Q1593.796875,181.414062,1593.796875,180.875Q1593.796875,179.609375,1595.261719,178.074219Q1596.726562,176.539062,1600.347656,174.523438Q1603.96875,172.507812,1610.390625,169.8125Q1612.335938,167.445312,1614.679688,164.445312Q1617.023438,161.445312,1619.929688,157.71875L1619.671875,157.625Q1618.359375,159.03125,1616.378906,160.519531Q1614.398438,162.007812,1612.242188,163.027344Q1610.085938,164.046875,1608.1875,164.046875Q1605.5625,164.046875,1605.5625,162.101562Q1605.5625,161.257812,1605.855469,160.378906Q1606.148438,159.5,1607.003906,158.09375Q1607.859375,156.6875,1609.570312,154.273438Q1610.648438,152.960938,1612.160156,151.414062Q1613.671875,149.867188,1615.429688,148.085938Q1616.179688,148.15625,1616.542969,148.191406Q1616.90625,148.226562,1617.445312,148.226562Q1618.476562,148.226562,1619.109375,148.15625Q1617.492188,149.609375,1616.519531,150.628906Q1615.546875,151.648438,1614.761719,152.574219Q1613.976562,153.5,1612.875,154.671875Q1612.335938,155.28125,1611.398438,156.3125Q1610.460938,157.34375,1609.488281,158.503906Q1608.515625,159.664062,1607.847656,160.695312Q1607.179688,161.726562,1607.179688,162.359375Q1607.179688,163.132812,1607.601562,163.285156Q1608.023438,163.4375,1608.375,163.4375Q1610.484375,163.4375,1612.722656,162.230469Q1614.960938,161.023438,1617.023438,159.183594Q1619.085938,157.34375,1620.65625,155.421875Q1623.046875,152.796875,1624.488281,151.0625Q1625.929688,149.328125,1626.867188,148.15625Q1627.125,148.203125,1627.523438,148.261719Q1627.921875,148.320312,1628.320312,148.320312Q1628.625,148.320312,1629.164062,148.296875Q1629.703125,148.273438,1630.007812,148.226562L1621.851562,158.28125Q1619.625,161.304688,1617.714844,163.835938Q1615.804688,166.367188,1614.140625,168.476562Q1617.375,166.929688,1619.566406,165.558594Q1621.757812,164.1875,1623.445312,162.675781Q1625.132812,161.164062,1626.820312,159.195312Q1628.507812,157.226562,1630.757812,154.484375L1631.25,154.882812Q1629.304688,157.226562,1627.769531,158.984375Q1626.234375,160.742188,1624.828125,162.125Q1623.421875,163.507812,1621.828125,164.691406Q1620.234375,165.875,1618.195312,167.023438Q1616.15625,168.171875,1613.320312,169.507812Q1610.015625,173.679688,1607.589844,176.234375Q1605.164062,178.789062,1603.242188,180.136719Q1601.320312,181.484375,1599.5625,181.964844Q1597.804688,182.445312,1595.835938,182.445312ZM1595.929688,181.8125Q1597.242188,181.8125,1598.507812,181.34375Q1599.773438,180.875,1601.285156,179.691406Q1602.796875,178.507812,1604.800781,176.351562Q1606.804688,174.195312,1609.570312,170.820312Q1604.226562,173.09375,1600.910156,174.875Q1597.59375,176.65625,1596.070312,178.097656Q1594.546875,179.539062,1594.546875,180.875Q1594.546875,181.132812,1594.875,181.472656Q1595.203125,181.8125,1595.929688,181.8125ZM1643.53125,164.046875Q1642.242188,164.046875,1641.292969,163.554688Q1640.34375,163.0625,1640.34375,162.242188Q1640.34375,161.609375,1640.625,160.753906Q1640.90625,159.898438,1641.972656,158.398438Q1643.039062,156.898438,1645.335938,154.320312Q1647.1875,152.234375,1647.890625,151.085938Q1648.59375,149.9375,1648.59375,149.375Q1648.59375,149.046875,1648.359375,148.789062Q1648.125,148.53125,1647.46875,148.53125Q1647,148.53125,1646.214844,148.835938Q1645.429688,149.140625,1644.351562,149.867188Q1642.5,151.132812,1639.804688,153.769531Q1637.109375,156.40625,1633.617188,160.695312L1631.4375,163.554688Q1630.828125,163.4375,1630.078125,163.4375Q1629.234375,163.4375,1628.683594,163.519531Q1628.132812,163.601562,1627.851562,163.671875Q1630.476562,159.875,1632.234375,157.378906Q1633.992188,154.882812,1635.058594,153.382812Q1636.125,151.882812,1636.652344,151.097656Q1637.179688,150.3125,1637.367188,149.972656Q1637.554688,149.632812,1637.578125,149.421875Q1637.625,148.742188,1637.0625,148.742188Q1636.734375,148.742188,1636.03125,149.398438Q1635.328125,150.054688,1634.449219,151.039062Q1633.570312,152.023438,1632.726562,153.066406Q1631.882812,154.109375,1631.25,154.882812Q1631.085938,154.976562,1630.828125,154.765625Q1630.6875,154.554688,1630.757812,154.484375Q1631.4375,153.757812,1632.292969,152.667969Q1633.148438,151.578125,1634.085938,150.488281Q1635.023438,149.398438,1636.007812,148.671875Q1636.992188,147.945312,1637.90625,147.945312Q1638.585938,147.945312,1639.253906,148.238281Q1639.921875,148.53125,1639.804688,149.632812Q1639.78125,150.007812,1639.570312,150.582031Q1639.359375,151.15625,1638.726562,152.046875L1633.804688,158.890625L1633.921875,159.148438Q1637.578125,155.023438,1640.027344,152.667969Q1642.476562,150.3125,1644.164062,149.1875Q1645.289062,148.4375,1646.144531,148.191406Q1647,147.945312,1647.726562,147.945312Q1649.25,147.945312,1649.871094,148.683594Q1650.492188,149.421875,1650.46875,150.3125Q1650.445312,151.25,1649.847656,152.550781Q1649.25,153.851562,1647.808594,155.785156Q1646.367188,157.71875,1643.765625,160.554688Q1642.570312,161.820312,1642.324219,162.183594Q1642.078125,162.546875,1642.078125,162.851562Q1642.078125,163.085938,1642.558594,163.238281Q1643.039062,163.390625,1643.765625,163.390625Q1645.195312,163.390625,1646.695312,162.570312Q1648.195312,161.75,1649.613281,160.519531Q1651.03125,159.289062,1652.203125,158Q1653.375,156.710938,1654.160156,155.726562Q1654.945312,154.742188,1655.179688,154.484375L1655.671875,154.882812Q1655.390625,155.1875,1654.582031,156.195312Q1653.773438,157.203125,1652.554688,158.527344Q1651.335938,159.851562,1649.859375,161.117188Q1648.382812,162.382812,1646.765625,163.214844Q1645.148438,164.046875,1643.53125,164.046875ZM1654.96875,164.046875Q1653.46875,164.046875,1652.777344,163.226562Q1652.085938,162.40625,1652.085938,160.976562Q1652.085938,159.40625,1652.753906,157.625Q1653.421875,155.84375,1654.96875,154.085938Q1658.132812,150.40625,1660.886719,149.175781Q1663.640625,147.945312,1666.054688,147.945312Q1667.273438,147.945312,1668.117188,148.460938Q1668.960938,148.976562,1668.960938,149.867188Q1668.960938,150.546875,1668.679688,151.25Q1669.42969,150.359375,1669.95703,149.691406Q1670.48438,149.023438,1670.97656,148.414062Q1671.58594,148.601562,1672.38281,148.601562Q1672.71094,148.601562,1673.27344,148.578125Q1673.83594,148.554688,1674.14062,148.507812L1666.242188,158.023438Q1664.742188,159.804688,1664.085938,160.917969Q1663.429688,162.03125,1663.429688,162.640625Q1663.429688,163.390625,1664.15625,163.390625Q1665.421875,163.390625,1666.78125,162.652344Q1668.140625,161.914062,1669.45312,160.753906Q1670.76562,159.59375,1671.91406,158.339844Q1673.0625,157.085938,1673.94141,156.019531Q1674.82031,154.953125,1675.28906,154.4375L1675.75781,154.835938Q1675.24219,155.421875,1674.30469,156.523438Q1673.36719,157.625,1672.16016,158.914062Q1670.95312,160.203125,1669.55859,161.375Q1668.164062,162.546875,1666.699219,163.296875Q1665.234375,164.046875,1663.804688,164.046875Q1661.460938,164.046875,1661.460938,162.59375Q1661.460938,162.054688,1661.660156,161.503906Q1661.859375,160.953125,1662.46875,160.074219Q1663.078125,159.195312,1664.296875,157.71875L1664.0625,157.625Q1661.203125,161.140625,1658.777344,162.59375Q1656.351562,164.046875,1654.96875,164.046875ZM1655.0625,163.34375Q1656.5625,163.34375,1659.023438,161.597656Q1661.484375,159.851562,1664.929688,155.773438Q1665.492188,155.09375,1665.972656,154.507812Q1666.453125,153.921875,1666.898438,153.40625Q1667.4375,152.585938,1667.871094,151.695312Q1668.304688,150.804688,1668.304688,150.078125Q1668.304688,149.351562,1667.789062,149.011719Q1667.273438,148.671875,1666.664062,148.671875Q1665.515625,148.671875,1662.949219,150.324219Q1660.382812,151.976562,1657.3125,155.609375Q1655.554688,157.71875,1654.78125,159.359375Q1654.007812,161,1654.007812,162.125Q1654.007812,163.34375,1655.0625,163.34375ZM1697.71875,164.117188Q1696.45312,164.117188,1695.51562,163.613281Q1694.57812,163.109375,1694.57812,162.289062Q1694.57812,161.65625,1694.89453,160.789062Q1695.21094,159.921875,1696.3125,158.410156Q1697.41406,156.898438,1699.71094,154.320312Q1701.53906,152.234375,1702.2656200000001,151.085938Q1702.99219,149.9375,1702.99219,149.375Q1702.99219,149.046875,1702.7343799999999,148.789062Q1702.47656,148.53125,1701.7968799999999,148.53125Q1701.2343799999999,148.53125,1700.36719,148.929688Q1699.5,149.328125,1697.97656,150.476562Q1696.14844,151.859375,1693.67578,154.378906Q1691.20312,156.898438,1688.20312,160.695312L1686.02344,163.554688Q1685.46094,163.4375,1684.6875,163.4375Q1683.86719,163.4375,1683.29297,163.519531Q1682.71875,163.601562,1682.46094,163.671875Q1683.84375,161.984375,1684.60547,161.046875Q1685.36719,160.109375,1685.82422,159.535156Q1686.28125,158.960938,1686.70312,158.410156Q1687.125,157.859375,1687.80469,156.96875Q1688.48438,156.078125,1689.72656,154.4375Q1691.08594,152.65625,1691.75391,151.636719Q1692.42188,150.617188,1692.65625,150.089844Q1692.89062,149.5625,1692.89062,149.257812Q1692.89062,148.53125,1691.74219,148.53125Q1691.15625,148.53125,1690.17188,148.941406Q1689.1875,149.351562,1687.73438,150.5Q1686.11719,151.789062,1683.66797,154.320312Q1681.21875,156.851562,1678.07812,160.695312L1675.89844,163.554688Q1675.57031,163.484375,1675.23047,163.460938Q1674.89062,163.4375,1674.5625,163.4375Q1673.71875,163.4375,1673.14453,163.519531Q1672.57031,163.601562,1672.33594,163.671875Q1674.96094,159.875,1676.71875,157.378906Q1678.47656,154.882812,1679.54297,153.382812Q1680.60938,151.882812,1681.13672,151.097656Q1681.66406,150.3125,1681.85156,149.972656Q1682.03906,149.632812,1682.0625,149.421875Q1682.10938,148.742188,1681.54688,148.742188Q1681.21875,148.742188,1680.51562,149.398438Q1679.8125,150.054688,1678.93359,151.039062Q1678.05469,152.023438,1677.21094,153.066406Q1676.36719,154.109375,1675.73438,154.882812Q1675.57031,154.976562,1675.3125,154.765625Q1675.17188,154.554688,1675.24219,154.484375Q1675.92188,153.757812,1676.77734,152.667969Q1677.63281,151.578125,1678.57031,150.488281Q1679.50781,149.398438,1680.49219,148.671875Q1681.47656,147.945312,1682.39062,147.945312Q1683.07031,147.945312,1683.73828,148.238281Q1684.40625,148.53125,1684.28906,149.632812Q1684.26562,150.007812,1684.05469,150.582031Q1683.84375,151.15625,1683.21094,152.046875L1678.28906,158.890625L1678.40625,159.148438Q1681.6875,155.351562,1683.96094,153.042969Q1686.23438,150.734375,1687.66406,149.726562Q1689.02344,148.695312,1690.04297,148.320312Q1691.0625,147.945312,1692,147.945312Q1693.5,147.945312,1694.14453,148.683594Q1694.78906,149.421875,1694.74219,150.3125Q1694.69531,151.15625,1694.48438,151.835938Q1694.27344,152.515625,1693.5,153.710938Q1695.53906,151.625,1697.15625,150.3125Q1698.91406,148.882812,1700.02734,148.414062Q1701.1406200000001,147.945312,1702.10156,147.945312Q1703.625,147.945312,1704.24609,148.683594Q1704.86719,149.421875,1704.84375,150.3125Q1704.82031,151.25,1704.22266,152.550781Q1703.625,153.851562,1702.18359,155.785156Q1700.74219,157.71875,1698.1406200000001,160.554688Q1696.92188,161.820312,1696.6875,162.183594Q1696.45312,162.546875,1696.45312,162.851562L1696.28906,162.875Q1696.28906,163.4375,1698,163.4375Q1699.14844,163.4375,1700.50781,162.617188Q1701.86719,161.796875,1703.23828,160.554688Q1704.6093799999999,159.3125,1705.80469,158.011719Q1707,156.710938,1707.82031,155.726562Q1708.6406200000001,154.742188,1708.875,154.484375L1709.36719,154.882812Q1709.08594,155.1875,1708.23047,156.207031Q1707.375,157.226562,1706.13281,158.550781Q1704.8906200000001,159.875,1703.4375,161.152344Q1701.9843799999999,162.429688,1700.50781,163.273438Q1699.03125,164.117188,1697.71875,164.117188ZM1719.53906,143.46875Q1718.88281,143.46875,1718.49609,143.058594Q1718.1093799999999,142.648438,1718.1093799999999,142.015625Q1718.1093799999999,141.195312,1718.80078,140.503906Q1719.49219,139.8125,1720.4531200000001,139.8125Q1721.1093799999999,139.8125,1721.49609,140.246094Q1721.88281,140.679688,1721.88281,141.289062Q1721.88281,142.15625,1721.14453,142.8125Q1720.40625,143.46875,1719.53906,143.46875ZM1707.5625,164.046875Q1706.13281,164.046875,1705.25391,163.519531Q1704.375,162.992188,1704.375,162.101562Q1704.375,161.398438,1704.72656,160.472656Q1705.0781200000001,159.546875,1706.07422,158.046875Q1707.07031,156.546875,1708.98047,154.144531Q1710.8906200000001,151.742188,1714.00781,148.109375Q1714.21875,148.132812,1715.0156200000001,148.15625Q1715.8125,148.179688,1716.25781,148.179688Q1716.65625,148.179688,1716.85547,148.167969Q1717.05469,148.15625,1717.24219,148.132812Q1713.82031,152.164062,1711.65234,154.765625Q1709.4843799999999,157.367188,1708.3125,158.914062Q1707.1406200000001,160.460938,1706.69531,161.28125Q1706.25,162.101562,1706.25,162.59375Q1706.25,163.203125,1706.90625,163.296875Q1707.5625,163.390625,1707.96094,163.390625Q1709.22656,163.390625,1710.72656,162.535156Q1712.22656,161.679688,1713.71484,160.402344Q1715.2031200000001,159.125,1716.48047,157.8125Q1717.75781,156.5,1718.5781200000001,155.550781Q1719.39844,154.601562,1719.53906,154.460938L1720.00781,154.882812Q1719.75,155.164062,1718.88281,156.171875Q1718.0156200000001,157.179688,1716.72656,158.503906Q1715.4375,159.828125,1713.90234,161.09375Q1712.36719,162.359375,1710.73828,163.203125Q1709.1093799999999,164.046875,1707.5625,164.046875ZM1721.74219,164.140625Q1719.25781,164.140625,1718.07422,162.910156Q1716.8906200000001,161.679688,1716.8906200000001,159.921875Q1716.8906200000001,158.398438,1717.60547,156.699219Q1718.32031,155,1719.7968799999999,153.242188Q1722.35156,150.242188,1725.19922,149.058594Q1728.0468799999999,147.875,1730.1093799999999,147.945312Q1731.67969,147.992188,1732.30078,148.683594Q1732.9218799999999,149.375,1732.94531,150.125Q1732.99219,151.132812,1732.18359,151.917969Q1731.375,152.703125,1730.46094,152.703125Q1729.9218799999999,152.703125,1729.44141,152.351562Q1728.96094,152,1728.9375,151.320312Q1728.91406,150.664062,1729.44141,150.21875Q1729.96875,149.773438,1730.69531,149.75Q1731.25781,149.726562,1731.8906200000001,150.007812L1731.8906200000001,149.914062Q1731.8906200000001,149.304688,1731.48047,148.929688Q1731.07031,148.554688,1730.1093799999999,148.554688Q1728.53906,148.554688,1726.34766,150.289062Q1724.15625,152.023438,1721.3906200000001,155.632812Q1720.10156,157.34375,1719.63281,158.644531Q1719.16406,159.945312,1719.16406,160.976562Q1719.16406,161.984375,1719.92578,162.722656Q1720.6875,163.460938,1721.88281,163.460938Q1724.15625,163.460938,1726.1718799999999,162.59375Q1728.1875,161.726562,1729.85156,160.4375Q1731.5156200000001,159.148438,1732.74609,157.824219Q1733.97656,156.5,1734.69141,155.550781Q1735.40625,154.601562,1735.52344,154.484375L1736.03906,154.882812Q1735.9218799999999,155.023438,1735.1718799999999,155.996094Q1734.4218799999999,156.96875,1733.13281,158.328125Q1731.84375,159.6875,1730.1093799999999,161.023438Q1728.375,162.359375,1726.25391,163.25Q1724.13281,164.140625,1721.74219,164.140625ZM1734.2343799999999,164.539062Q1733.50781,164.539062,1732.3593799999999,164.351562Q1731.21094,164.164062,1730.30859,163.554688Q1729.40625,162.945312,1729.40625,161.65625Q1729.40625,160.484375,1730.12109,159.722656Q1730.83594,158.960938,1731.7031200000001,158.585938Q1732.57031,158.210938,1732.99219,158.210938Q1733.9531200000001,158.210938,1733.9531200000001,159.101562Q1733.92969,159.476562,1733.42578,159.792969Q1732.9218799999999,160.109375,1732.3125,160.109375Q1732.03125,160.109375,1731.76172,159.910156Q1731.49219,159.710938,1731.3281200000001,159.617188Q1731.07031,159.875,1730.54297,160.378906Q1730.0156200000001,160.882812,1730.0156200000001,161.679688Q1730.0156200000001,162.570312,1730.73047,163.003906Q1731.44531,163.4375,1732.33594,163.566406Q1733.22656,163.695312,1733.69531,163.695312Q1734.67969,163.695312,1736.15625,162.910156Q1737.63281,162.125,1738.91016,160.273438Q1740.1875,158.421875,1740.5625,155.234375Q1740.67969,154.109375,1740.78516,152.117188Q1740.8906200000001,150.125,1741.52344,148.296875Q1741.5468799999999,148.226562,1741.5468799999999,148.085938Q1740.65625,149.1875,1739.625,150.453125Q1738.59375,151.71875,1737.64453,152.890625Q1736.69531,154.0625,1736.0156200000001,154.882812Q1735.5468799999999,155.445312,1735.33594,155.609375Q1735.125,155.773438,1735.14844,155.773438Q1735.125,155.773438,1734.97266,155.785156Q1734.82031,155.796875,1734.72656,155.632812Q1734.67969,155.515625,1734.94922,155.1875Q1735.21875,154.859375,1735.52344,154.484375Q1736.0625,153.875,1737.1875,152.539062Q1738.3125,151.203125,1739.56641,149.679688Q1740.82031,148.15625,1741.7343799999999,146.984375Q1741.875,146.28125,1742.15625,145.71875Q1742.4375,145.15625,1742.9531200000001,145.15625Q1743.8906200000001,145.15625,1743.8906200000001,145.929688Q1743.86719,146.375,1742.8125,147.59375Q1742.17969,148.34375,1742.13281,148.566406Q1742.08594,148.789062,1742.08594,149.140625Q1742.0625,149.984375,1742.26172,151.238281Q1742.46094,152.492188,1742.69531,153.863281Q1742.92969,155.234375,1743,156.476562Q1743.07031,158.328125,1742.5781200000001,159.6875Q1742.9531200000001,159.734375,1743.21094,159.734375Q1743.96094,159.734375,1744.93359,159.054688Q1745.90625,158.375,1746.86719,157.4375Q1747.8281200000001,156.5,1748.54297,155.65625Q1749.25781,154.8125,1749.49219,154.484375L1750.00781,154.882812Q1749.6093799999999,155.304688,1748.83594,156.183594Q1748.0625,157.0625,1747.0781200000001,158.011719Q1746.09375,158.960938,1745.07422,159.628906Q1744.05469,160.296875,1743.1406200000001,160.296875Q1742.92969,160.296875,1742.74219,160.285156Q1742.55469,160.273438,1742.36719,160.25Q1741.2656200000001,162.6875,1739.1093799999999,163.613281Q1736.9531200000001,164.539062,1734.2343799999999,164.539062Z" fill="#9E9E9E" fill-opacity="1"/></g><rect x="18" y="1128" width="1389" height="24" rx="0" fill="#000000" fill-opacity="1"/></g></svg>